<svg width="41" height="37" viewBox="0 0 41 37" fill="none" xmlns="http://www.w3.org/2000/svg">
<path d="M39.5156 7.43441C38.8873 5.97958 37.9813 4.66123 36.8484 3.55316C35.7147 2.44178 34.3779 1.55858 32.9109 0.951596C31.3897 0.319688 29.7582 -0.00375837 28.1109 3.29478e-05C25.8 3.29478e-05 23.5453 0.632845 21.5859 1.82816C21.1172 2.1141 20.6719 2.42816 20.25 2.77035C19.8281 2.42816 19.3828 2.1141 18.9141 1.82816C16.9547 0.632845 14.7 3.29478e-05 12.3891 3.29478e-05C10.725 3.29478e-05 9.1125 0.318783 7.58906 0.951596C6.11719 1.56097 4.79062 2.43753 3.65156 3.55316C2.51717 4.65998 1.61099 5.97864 0.984375 7.43441C0.332813 8.94847 0 10.5563 0 12.211C0 13.7719 0.31875 15.3985 0.951563 17.0532C1.48125 18.436 2.24062 19.8703 3.21094 21.3188C4.74844 23.611 6.8625 26.0016 9.4875 28.425C13.8375 32.4422 18.1453 35.2172 18.3281 35.3297L19.4391 36.0422C19.9313 36.3563 20.5641 36.3563 21.0563 36.0422L22.1672 35.3297C22.35 35.2125 26.6531 32.4422 31.0078 28.425C33.6328 26.0016 35.7469 23.611 37.2844 21.3188C38.2547 19.8703 39.0187 18.436 39.5437 17.0532C40.1766 15.3985 40.4953 13.7719 40.4953 12.211C40.5 10.5563 40.1672 8.94847 39.5156 7.43441Z" fill="#46377B"/>
<path d="M12.9649 19.588C11.9209 19.588 11.1889 18.46 11.1889 16.708C11.1889 14.968 11.9209 13.84 12.9649 13.84C13.9969 13.84 14.7289 14.968 14.7289 16.708C14.7289 18.46 13.9969 19.588 12.9649 19.588ZM12.9649 12.952C11.3809 12.952 10.2529 14.416 10.2529 16.708C10.2529 19 11.3809 20.464 12.9649 20.464C14.5489 20.464 15.6649 19 15.6649 16.708C15.6649 14.416 14.5489 12.952 12.9649 12.952ZM20.1529 16.42H18.3769V12.136H17.3929V22.888H18.3769V17.248H20.1529V16.42ZM23.5 19.48H22.18V16.684H23.5V19.48ZM23.5 15.892H22.18V13.132H21.34V20.284H24.316V13.132H23.5V15.892ZM26.992 19.48H25.72V16.684H26.992V19.48ZM26.992 15.892H25.72V13.132H24.892V20.284H27.82V13.132H26.992V15.892ZM31.144 16.324H29.704V12.124H28.732V22.888H29.704V17.152H31.144V16.324Z" fill="white"/>
</svg>
