<svg width="40" height="37" viewBox="0 0 40 37" fill="none" xmlns="http://www.w3.org/2000/svg">
<path d="M20 0C31.0457 0 40 6.97905 40 15.5905C40 24.2 31.0457 31.1791 20 31.1791C18.9001 31.1796 17.8014 31.1096 16.7105 30.9695L8.31429 36.461C7.36 36.9657 7.02286 36.9105 7.41524 35.6743L9.11429 28.6686C3.62857 25.8876 0 21.0686 0 15.5905C0 6.98095 8.95429 0 20 0ZM31.2514 15.3524L34.0514 12.64C34.213 12.4722 34.3031 12.2483 34.3028 12.0153C34.3026 11.7824 34.2119 11.5587 34.0499 11.3913C33.888 11.2239 33.6673 11.1258 33.4345 11.1179C33.2017 11.1099 32.9749 11.1926 32.8019 11.3486L29.1295 14.9029V11.9657C29.1295 11.7273 29.0348 11.4986 28.8662 11.33C28.6976 11.1614 28.4689 11.0667 28.2305 11.0667C27.992 11.0667 27.7634 11.1614 27.5948 11.33C27.4261 11.4986 27.3314 11.7273 27.3314 11.9657V16.8362C27.2977 16.9751 27.2977 17.1201 27.3314 17.259V20C27.3314 20.2384 27.4261 20.4671 27.5948 20.6357C27.7634 20.8043 27.992 20.899 28.2305 20.899C28.4689 20.899 28.6976 20.8043 28.8662 20.6357C29.0348 20.4671 29.1295 20.2384 29.1295 20V17.4038L29.9429 16.6171L32.6629 20.4895C32.7308 20.5862 32.8171 20.6686 32.9168 20.7319C33.0165 20.7952 33.1278 20.8383 33.2442 20.8586C33.3605 20.879 33.4798 20.8762 33.5951 20.8504C33.7104 20.8247 33.8195 20.7765 33.9162 20.7086C34.0129 20.6407 34.0952 20.5544 34.1586 20.4546C34.2219 20.3549 34.2649 20.2437 34.2853 20.1273C34.3056 20.0109 34.3028 19.8916 34.2771 19.7763C34.2514 19.661 34.2032 19.5519 34.1352 19.4552L31.2514 15.3505V15.3524ZM25.6171 19.0171H22.8362V11.9943C22.8255 11.7633 22.7263 11.5452 22.559 11.3855C22.3918 11.2257 22.1694 11.1366 21.9381 11.1366C21.7068 11.1366 21.4844 11.2257 21.3172 11.3855C21.1499 11.5452 21.0506 11.7633 21.04 11.9943V19.9162C21.04 20.4114 21.44 20.8152 21.9371 20.8152H25.6171C25.8556 20.8152 26.0843 20.7205 26.2529 20.5519C26.4215 20.3833 26.5162 20.1546 26.5162 19.9162C26.5162 19.6778 26.4215 19.4491 26.2529 19.2805C26.0843 19.1119 25.8556 19.0171 25.6171 19.0171ZM14.461 16.9371L15.7867 13.6857L17.0019 16.9371H14.461ZM19.2667 17.8667L19.2705 17.8362C19.27 17.6097 19.1836 17.3918 19.0286 17.2267L17.0362 11.8933C16.9527 11.6392 16.7936 11.4166 16.5802 11.2552C16.3668 11.0939 16.1092 11.0015 15.8419 10.9905C15.5726 10.9893 15.3094 11.0701 15.0872 11.2222C14.865 11.3743 14.6944 11.5905 14.5981 11.8419L11.4343 19.6038C11.3896 19.7131 11.367 19.8302 11.3675 19.9482C11.3681 20.0663 11.3919 20.1831 11.4377 20.292C11.4834 20.4008 11.5501 20.4996 11.634 20.5827C11.7179 20.6658 11.8174 20.7315 11.9267 20.7762C12.036 20.8208 12.153 20.8435 12.2711 20.8429C12.3892 20.8424 12.506 20.8185 12.6148 20.7728C12.7237 20.7271 12.8225 20.6604 12.9056 20.5765C12.9887 20.4926 13.0544 20.3931 13.099 20.2838L13.7276 18.7352H17.6705L18.24 20.259C18.2787 20.3729 18.3399 20.4779 18.4199 20.5677C18.5 20.6576 18.5972 20.7304 18.7059 20.782C18.8146 20.8335 18.9325 20.8628 19.0527 20.8679C19.1729 20.8731 19.2929 20.854 19.4056 20.812C19.5183 20.7699 19.6215 20.7056 19.7089 20.623C19.7963 20.5403 19.8662 20.441 19.9145 20.3308C19.9629 20.2206 19.9886 20.1019 19.9902 19.9816C19.9918 19.8613 19.9692 19.7419 19.9238 19.6305L19.2667 17.8667ZM12.939 12.0038C12.939 11.7657 12.8446 11.5373 12.6764 11.3688C12.5082 11.2002 12.28 11.1053 12.0419 11.1048H5.86095C5.62251 11.1048 5.39383 11.1995 5.22523 11.3681C5.05663 11.5367 4.96191 11.7654 4.96191 12.0038C4.96191 12.2423 5.05663 12.4709 5.22523 12.6395C5.39383 12.8081 5.62251 12.9029 5.86095 12.9029H8.07048V20.0191C8.07048 20.2575 8.1652 20.4862 8.3338 20.6548C8.50241 20.8234 8.73108 20.9181 8.96952 20.9181C9.20797 20.9181 9.43664 20.8234 9.60525 20.6548C9.77385 20.4862 9.86857 20.2575 9.86857 20.0191V12.9029H12.04C12.2784 12.9029 12.5071 12.8081 12.6757 12.6395C12.8443 12.4709 12.939 12.2423 12.939 12.0038Z" fill="white"/>
</svg>
