<svg width="41" height="37" viewBox="0 0 41 37" fill="none" xmlns="http://www.w3.org/2000/svg">
<path d="M39.5156 7.43441C38.8873 5.97958 37.9813 4.66123 36.8484 3.55316C35.7147 2.44178 34.3779 1.55858 32.9109 0.951596C31.3897 0.319688 29.7582 -0.00375837 28.1109 3.29478e-05C25.8 3.29478e-05 23.5453 0.632845 21.5859 1.82816C21.1172 2.1141 20.6719 2.42816 20.25 2.77035C19.8281 2.42816 19.3828 2.1141 18.9141 1.82816C16.9547 0.632845 14.7 3.29478e-05 12.3891 3.29478e-05C10.725 3.29478e-05 9.1125 0.318783 7.58906 0.951596C6.11719 1.56097 4.79062 2.43753 3.65156 3.55316C2.51717 4.65998 1.61099 5.97864 0.984375 7.43441C0.332813 8.94847 0 10.5563 0 12.211C0 13.7719 0.31875 15.3985 0.951563 17.0532C1.48125 18.436 2.24062 19.8703 3.21094 21.3188C4.74844 23.611 6.8625 26.0016 9.4875 28.425C13.8375 32.4422 18.1453 35.2172 18.3281 35.3297L19.4391 36.0422C19.9313 36.3563 20.5641 36.3563 21.0563 36.0422L22.1672 35.3297C22.35 35.2125 26.6531 32.4422 31.0078 28.425C33.6328 26.0016 35.7469 23.611 37.2844 21.3188C38.2547 19.8703 39.0187 18.436 39.5437 17.0532C40.1766 15.3985 40.4953 13.7719 40.4953 12.211C40.5 10.5563 40.1672 8.94847 39.5156 7.43441Z" fill="#EDAF1C"/>
<path d="M12.9289 19.648H18.0049V21.952H12.9289V19.648ZM11.9689 22.744H18.9649V18.868H11.9689V22.744ZM13.0369 16.996C11.9689 16.996 11.2009 16.288 11.2009 15.268C11.2009 14.272 11.9689 13.576 13.0369 13.576C14.0929 13.576 14.8609 14.272 14.8609 15.268C14.8609 16.288 14.0929 16.996 13.0369 16.996ZM17.9689 12.136V14.836H15.7609C15.5569 13.588 14.4769 12.748 13.0369 12.748C11.4289 12.748 10.2649 13.78 10.2649 15.268C10.2649 16.792 11.4289 17.824 13.0369 17.824C14.5009 17.824 15.5929 16.96 15.7729 15.652H17.9689V18.316H18.9649V12.136H17.9689ZM22.528 13.996H25.54V19.36H22.528V13.996ZM21.568 20.152H26.5V13.204H21.568V20.152ZM31.192 16.42H29.416V12.136H28.432V22.888H29.416V17.248H31.192V16.42Z" fill="white"/>
</svg>
