<svg width="36" height="36" viewBox="0 0 36 36" fill="none" xmlns="http://www.w3.org/2000/svg">
<path d="M15.1558 19.4752C17.2433 21.5928 19.7691 23.2278 22.5558 24.2652L26.3258 21.2652C26.4376 21.1882 26.5701 21.147 26.7058 21.147C26.8415 21.147 26.974 21.1882 27.0858 21.2652L34.0858 25.7752C34.3515 25.935 34.5765 26.1543 34.7429 26.416C34.9093 26.6776 35.0126 26.9744 35.0446 27.2828C35.0766 27.5912 35.0364 27.9029 34.9273 28.1931C34.8182 28.4834 34.6431 28.7443 34.4158 28.9552L31.1358 32.1952C30.6661 32.6593 30.0887 32.9999 29.4553 33.1866C28.8219 33.3733 28.1522 33.4003 27.5058 33.2652C21.058 31.9335 15.1149 28.8147 10.3558 24.2652C5.70227 19.6704 2.48206 13.824 1.08579 7.43519C0.947852 6.79883 0.976641 6.13763 1.16936 5.51566C1.36208 4.8937 1.7122 4.33206 2.18579 3.88519L5.58579 0.605188C5.79618 0.388976 6.05277 0.223163 6.33633 0.120166C6.61989 0.0171691 6.92308 -0.0203434 7.2232 0.0104374C7.52331 0.0412183 7.81257 0.139495 8.06932 0.297909C8.32607 0.456322 8.54366 0.670768 8.70579 0.925188L13.3658 7.83519C13.4462 7.94369 13.4895 8.07516 13.4895 8.21019C13.4895 8.34522 13.4462 8.47668 13.3658 8.58519L10.2958 12.2752C11.3614 15.0061 13.0215 17.4656 15.1558 19.4752Z" fill="white"/>
</svg>
